<?xml version="1.0" encoding="utf-8"?>
<!-- Generator: Adobe Illustrator 25.0.0, SVG Export Plug-In . SVG Version: 6.00 Build 0)  -->
<svg version="1.1" id="Layer_1" xmlns="http://www.w3.org/2000/svg" xmlns:xlink="http://www.w3.org/1999/xlink" x="0px" y="0px"
	 viewBox="0 0 436.5 187.1" style="enable-background:new 0 0 436.5 187.1;" xml:space="preserve">
<style type="text/css">
	.st0{fill:#44AD7C;}
	.st1{fill:#6D6E71;}
</style>
<g>
	<g>
		<path class="st0" d="M170.3,56.9V32c0-5.4-0.3-10.9-1.9-15.5c1.2-1.1,3.7-2.8,7.3-2.8c4.1,0,7.3,2.5,7.3,6.8v73.8
			c0,5.4,0.3,10.9,1.9,15.3c-1.1,1.1-3.7,2.9-7.3,2.9c-4.1,0-7.2-2.6-7.2-6.9V64.2L170.3,56.9z"/>
		<path class="st0" d="M127.2,64.2v30.2c0,5.4,0.3,10.9,1.9,15.3c-1.2,1.1-3.7,2.9-7.3,2.9c-4.3,0-7.3-2.6-7.3-6.9V32
			c0-5.4-0.4-10.9-1.9-15.5c1.1-1.1,3.7-2.8,7.2-2.8c4.3,0,7.5,2.5,7.5,6.8v36.3V64.2z"/>
		<path class="st0" d="M248.5,73.7L233,21.5l-15.2,52.2l-2.2,7.3l-6.3,21.9c-0.4,1.7-0.8,3.3-0.8,4.8c0,1.5,0.3,2.6,1,3.4
			c-1.9,0.7-3.9,1.2-6.9,1.2c-4.8,0-7.2-1.7-7.2-5.5c0-1.8,0.7-4.4,1.5-6.9l28.7-84.7c3.6-1.4,7-1.9,10.5-1.9c3.3,0,6.3,1,7.3,4.4
			l27,84.9c0.7,2.2,1.9,5.1,3.6,6.9c-1.4,1.5-3.5,2.9-7.5,2.9c-3.9,0-7-1.7-7.9-5L250.8,81L248.5,73.7z"/>
		<path class="st0" d="M336.6,73.7l-15.6-52.2l-15.2,52.2l-2.2,7.3l-6.3,21.9c-0.4,1.7-0.8,3.3-0.8,4.8c0,1.5,0.3,2.6,1,3.4
			c-1.9,0.7-3.9,1.2-6.9,1.2c-4.8,0-7.2-1.7-7.2-5.5c0-1.8,0.7-4.4,1.5-6.9l28.7-84.7c3.6-1.4,7-1.9,10.5-1.9c3.3,0,6.3,1,7.3,4.4
			l27,84.9c0.7,2.2,1.9,5.1,3.6,6.9c-1.4,1.5-3.5,2.9-7.5,2.9c-3.9,0-7-1.7-7.9-5L338.9,81L336.6,73.7z M250.8,81h-35.2l2.2-7.3
			h30.8L250.8,81z M338.9,81h-35.2l2.2-7.3h30.8L338.9,81z"/>
		<g>
			<path class="st0" d="M61.5,103.1c-26.3,0-47.7-19.9-47.7-44.4c0-24.5,21.3-44.4,47.7-44.4c0.3,0,0.5,0,0.8,0c0,0,0.1,0,0.1,0
				c8.1,0.2,11.6-5.7,12.8-9.7c-6.2-2.6-13-4.1-20.1-4.1c-29.7,0-53.7,25.1-53.7,56c0,30.9,24.1,56,53.7,56
				c23.6,0,43.6-15.8,50.8-37.8C99,91.3,81.7,103.1,61.5,103.1z"/>
		</g>
		<path class="st0" d="M431,102.4l-9.6-23.4c-2.6-6.4-6.5-11.5-13.4-13.4c13-3.3,21.4-12.7,21.4-26.4c0-18.5-13-25.8-39.1-25.8
			c-11.6,0-17.8,1.5-21.3,3.2C370.6,21.1,371,29,371,32v73.7c0,4.3,3,6.9,7.3,6.9c3.6,0,6.2-1.8,7.3-2.9c-1.7-4.1-1.9-11.6-1.9-14.8
			V68.7h9.1c11.6,0.1,14.1,6.6,16.8,13.5l10,25.9c1.1,3.2,4.4,4.6,8.2,4.3c4-0.3,5.9-1.9,7.2-3.5C433.3,107.3,431.9,104.5,431,102.4
			z M393.4,61.4c-3.7,0-6.9,0-9.7-0.1V21c1.7-0.2,4.1-0.2,7.5-0.2c17.4,0,24.4,6.7,24.4,19.6C415.6,52.8,406.6,61.2,393.4,61.4z"/>
		<polygon class="st0" points="127.2,61.3 170.3,61.3 170.4,68.6 127.2,68.6 		"/>
		<path class="st0" d="M102,54.6c0-1.1-1.2-2.1-3.3-3c-0.7-0.3-1.5-0.6-2.5-0.9c-4.8-1.5-12.2-2.7-21.1-3.3L84,31.8
			c2-3.5,5.4-5.7,9.1-7c0.3-0.1,0.6-0.2,0.9-0.5c1.8-1.2,1.9-4,0.2-5.9c-1.6-1.8-3.2-3.4-5-5c-1.8-1.5-3.6-3-5.6-4.2
			c-0.8-0.5-1.7-0.8-2.6-0.8c-1.4,0-2.6,0.7-3.3,1.9c-0.3,0.6-0.5,1.4-0.5,2.1c-0.1,3.8-2,7.4-4.6,10.1L48.5,47.1
			c-17.4,0.9-30.1,3.9-30.1,7.5c0,0.1,0,0.2,0,0.2c0.1,24,18.6,43.5,41.3,43.5c16.5,0,30.8-10.2,37.4-25
			C90.4,86,77.4,94.5,62.4,94.5C42,94.5,25.2,78.6,23,58.2c6.9,2.5,21,4.2,37.2,4.2C83.3,62.4,102,58.9,102,54.6z M74.6,24.9
			c3.4-3.5,5.4-7.8,5.5-12.1c0-0.3,0.1-0.6,0.2-0.8c0.1-0.1,0.3-0.2,0.5-0.2c0.2,0,0.5,0,0.9,0.3c1.8,1.2,3.6,2.5,5.3,4
			c1.7,1.4,3.2,3,4.7,4.6c0.3,0.3,0.5,0.7,0.4,1.1c0,0.1,0,0.2-0.1,0.3c0,0-0.1,0-0.1,0c-4.9,1.6-8.3,3.6-10.4,7.4l-16.8,28
			c-0.8,0-1.6,0-2.4,0c-6.3,0-12.1-0.3-16.9-0.6L74.6,24.9z"/>
	</g>
	<g>
		<g>
			<path class="st1" d="M91,157.9v17.8c0,3.4-1,6-3.1,7.9c-1.3,1.2-3.1,2.1-5.2,2.6c-1,0.2-2,0.3-3.1,0.3c-0.4,0-0.8,0-1.4-0.1
				l-2-2.5v-1.8c0.9,0.1,1.7,0.2,2.5,0.2c4.8,0,7.2-2.3,7.2-7v-17.4H91z"/>
			<path class="st1" d="M101.6,147.5v24.1c0,0.3,0.1,0.5,0.2,0.7c0.2,0.2,0.4,0.4,0.8,0.4h1.1v4.2h-2.7c-1.1,0-2.1-0.4-2.9-1.2
				c-1-0.9-1.5-2-1.5-3.3v-24.8H101.6z"/>
			<path class="st1" d="M111,172.6v4.2h-7.6v-4.2H111z"/>
			<path class="st1" d="M116.4,165.1c0.9-2.7,2.6-4.7,5.1-6.1c1.8-1,3.8-1.6,5.9-1.6c2.1,0,4.1,0.6,5.8,1.7c2.2,1.3,3.8,3.3,4.7,5.9
				l-0.5,1.1c-1.1,0.5-2.2,1.3-3.4,2.5c-1.1,1.3-1.9,2.5-2.2,3.8h6.6v4.2h-9c-0.8,0-1.5-0.4-2.1-1.1h-0.2c-0.6,0.7-1.3,1.1-2.2,1.1
				h-14.2v-4.2h11.9c-0.3-1.1-1-2.3-2.1-3.6c-1.2-1.3-2.4-2.2-3.6-2.7L116.4,165.1z M132.8,164.8c-0.7-1.1-1.5-2-2.7-2.5
				c-0.8-0.4-1.8-0.6-2.8-0.6c-1.1,0-2.1,0.2-3.1,0.7c-1.1,0.5-1.9,1.4-2.5,2.5c0.9,0.4,1.9,1.2,2.9,2.5c1.1,1.3,2,2.7,2.5,4.2h0.2
				c0.5-1.5,1.4-3,2.7-4.4C130.9,165.9,131.9,165.2,132.8,164.8z"/>
			<path class="st1" d="M182.5,157.9v13.4v1.3h2.1v4.2H183l-1.3-1.7h-0.1c-0.9,1.1-2.1,1.7-3.5,1.7h-8.8l-1.3-1.7h-0.1
				c-0.9,1.1-2,1.7-3.4,1.7h-8.8l-1.3-1.7h-0.1c-0.9,1.1-2,1.7-3.4,1.7h-12.6v-4.2h11c0.7,0,1-0.3,1-1v-8.9h5v8.7c0,0.6,0,1,0,1.3
				h7.7c0.7,0,1-0.3,1-1v-11.3h5v10.9c0,0.2,0,0.4,0,0.7c0,0.3,0,0.5,0,0.7h7.7c0.7,0,1-0.3,1-1v-13.6H182.5z M163.3,148.9
				c0.7,0,1.4,0.3,1.9,0.8c0.5,0.5,0.8,1.1,0.8,1.9s-0.3,1.4-0.8,1.9c-0.5,0.5-1.1,0.8-1.9,0.8s-1.4-0.3-1.9-0.8
				c-0.5-0.5-0.8-1.1-0.8-1.9s0.3-1.4,0.8-1.9S162.6,148.9,163.3,148.9z M166.4,144c0.7,0,1.3,0.2,1.7,0.7c0.5,0.5,0.7,1.1,0.7,1.7
				s-0.2,1.3-0.7,1.7c-0.5,0.5-1,0.7-1.7,0.7s-1.3-0.2-1.7-0.7c-0.5-0.5-0.7-1-0.7-1.7s0.2-1.3,0.7-1.7
				C165.1,144.3,165.7,144,166.4,144z M169.5,148.9c0.7,0,1.4,0.3,1.9,0.8s0.8,1.1,0.8,1.9c0,0.7-0.3,1.3-0.8,1.8
				c-0.5,0.5-1.1,0.8-1.9,0.8c-0.7,0-1.3-0.3-1.8-0.8c-0.5-0.5-0.8-1.1-0.8-1.8c0-0.7,0.3-1.4,0.8-1.9S168.8,148.9,169.5,148.9z"/>
			<path class="st1" d="M196.6,147.5v24.8c0,1.1-0.4,2.1-1.1,2.9c-0.8,1-1.9,1.6-3.3,1.6h-7.9v-4.2h6.3c0.3,0,0.6-0.1,0.8-0.3
				c0.2-0.2,0.3-0.4,0.3-0.7v-24.1H196.6z"/>
			<path class="st1" d="M207.2,147.5v29.3h-5v-29.3H207.2z"/>
			<path class="st1" d="M237.6,156.8v14.7c0,0.3,0.1,0.6,0.3,0.7c0.2,0.2,0.4,0.3,0.7,0.3h1.1v4.2h-2.6c-1.3,0-2.4-0.5-3.4-1.5
				c-1.6,1.3-3.3,1.9-5.2,1.9c-2.2,0-4-0.7-5.6-2c-2.1-1.9-3.1-4.5-3.1-7.8c0-3,1-5.4,2.9-7.4c1.7-1.8,3.9-2.7,6.4-2.7
				c1.4,0,2.8,0.3,4.3,0.9l1.8-1.3H237.6z M232.6,162.1c-1-0.4-1.9-0.5-2.7-0.5c-1.5,0-2.7,0.5-3.6,1.6c-1,1.1-1.4,2.5-1.4,4.2
				s0.4,3.1,1.3,4.1c0.9,1,2,1.6,3.5,1.6c1,0,2-0.2,3.1-0.7V162.1z M228.7,148.9c0.7,0,1.4,0.3,1.9,0.8s0.8,1.1,0.8,1.9
				c0,0.7-0.3,1.3-0.8,1.8c-0.5,0.5-1.1,0.8-1.9,0.8c-0.7,0-1.4-0.3-1.9-0.8c-0.5-0.5-0.8-1.1-0.8-1.8c0-0.7,0.3-1.4,0.8-1.9
				S228,148.9,228.7,148.9z M234.9,148.9c0.7,0,1.4,0.3,1.9,0.8c0.5,0.5,0.8,1.1,0.8,1.9c0,0.7-0.3,1.3-0.8,1.8
				c-0.5,0.5-1.1,0.8-1.9,0.8c-0.7,0-1.3-0.3-1.8-0.8c-0.5-0.5-0.8-1.1-0.8-1.8c0-0.7,0.3-1.4,0.8-1.9
				C233.6,149.2,234.2,148.9,234.9,148.9z"/>
			<path class="st1" d="M247,172.6v4.2h-7.6v-4.2H247z"/>
			<path class="st1" d="M259,157.9v14v0.6h2.1v4.2h-1.4l-1.5-1.7H258c-0.9,1.1-2.1,1.7-3.5,1.7h-7.9v-4.2h6.2c0.4,0,0.7-0.1,0.8-0.3
				c0.2-0.2,0.4-0.5,0.4-0.8v-13.5H259z M250.1,179.7c0.7,0,1.4,0.3,1.9,0.8c0.5,0.5,0.8,1.1,0.8,1.9c0,0.7-0.3,1.4-0.8,1.9
				c-0.5,0.5-1.1,0.8-1.9,0.8c-0.7,0-1.4-0.3-1.9-0.8c-0.5-0.5-0.8-1.1-0.8-1.9c0-0.7,0.3-1.4,0.8-1.9S249.4,179.7,250.1,179.7z
				 M256.3,179.7c0.7,0,1.4,0.3,1.9,0.8c0.5,0.5,0.8,1.1,0.8,1.9c0,0.7-0.3,1.4-0.8,1.9c-0.5,0.5-1.1,0.8-1.9,0.8
				c-0.7,0-1.3-0.3-1.8-0.8c-0.5-0.5-0.8-1.1-0.8-1.9c0-0.7,0.3-1.4,0.8-1.9C255,180,255.6,179.7,256.3,179.7z"/>
			<path class="st1" d="M266.3,172.6v4.2h-5.6v-4.2H266.3z"/>
			<path class="st1" d="M278.4,147.5v24.8c0,1.1-0.4,2.1-1.1,2.9c-0.8,1-1.9,1.6-3.3,1.6h-7.9v-4.2h6.3c0.3,0,0.6-0.1,0.8-0.3
				c0.2-0.2,0.3-0.4,0.3-0.7v-24.1H278.4z"/>
			<path class="st1" d="M286.9,157.7c0.9-0.2,2-0.2,3.2-0.2c3.1,0,5.7,1,7.6,3c1.7,1.8,2.6,4.1,2.6,6.8v3.9c0,0.6,0,1.1,0,1.4h1.1
				v4.2h-0.5l-1.3-1.7h-0.1c-0.2,0.2-0.5,0.5-0.7,0.7c-0.8,0.7-1.7,1-2.7,1h-13.1v-4.2h11.5c0.7,0,1-0.3,1-1v-3.8
				c0-1.9-0.6-3.4-1.7-4.5c-1.1-1.1-2.6-1.6-4.6-1.7c-0.9,0-1.6,0.1-2.1,0.2V157.7z"/>
			<path class="st1" d="M307.7,172.6v4.2h-6.6v-4.2H307.7z"/>
			<path class="st1" d="M319.7,157.9v14v0.6h2.1v4.2h-1.4l-1.5-1.7h-0.1c-0.9,1.1-2.1,1.7-3.5,1.7h-7.9v-4.2h6.2
				c0.4,0,0.7-0.1,0.8-0.3c0.2-0.2,0.4-0.5,0.4-0.8v-13.5H319.7z M310.8,179.7c0.7,0,1.4,0.3,1.9,0.8c0.5,0.5,0.8,1.1,0.8,1.9
				c0,0.7-0.3,1.4-0.8,1.9c-0.5,0.5-1.1,0.8-1.9,0.8c-0.7,0-1.4-0.3-1.9-0.8c-0.5-0.5-0.8-1.1-0.8-1.9c0-0.7,0.3-1.4,0.8-1.9
				C309.4,180,310.1,179.7,310.8,179.7z M317,179.7c0.7,0,1.4,0.3,1.9,0.8s0.8,1.1,0.8,1.9c0,0.7-0.3,1.4-0.8,1.9
				c-0.5,0.5-1.1,0.8-1.9,0.8c-0.7,0-1.3-0.3-1.8-0.8c-0.5-0.5-0.8-1.1-0.8-1.9c0-0.7,0.3-1.4,0.8-1.9
				C315.7,180,316.3,179.7,317,179.7z"/>
			<path class="st1" d="M335.8,164.8c3.7-4.9,8.2-7.4,13.5-7.4c3.3,0,6,1,8.1,3.1c1.9,1.9,2.9,4.2,2.9,7v4.7c0,1.2-0.4,2.3-1.3,3.1
				c-0.8,0.9-1.9,1.4-3.1,1.4h-34.4v-4.2h9.4v-14.6h4.9V164.8z M355.3,167.8c0-1.7-0.5-3.1-1.6-4.1c-1.3-1.3-3-2-5.2-2
				c-2.1,0-4.1,0.7-6.1,2.1c-2.7,1.9-4.9,4.8-6.6,8.8h18.5c0.7,0,1-0.3,1-1V167.8z"/>
		</g>
	</g>
</g>
</svg>
