<?xml version="1.0" encoding="utf-8"?>
<!-- Generator: Adobe Illustrator 25.0.0, SVG Export Plug-In . SVG Version: 6.00 Build 0)  -->
<svg version="1.1" id="Layer_1" xmlns="http://www.w3.org/2000/svg" xmlns:xlink="http://www.w3.org/1999/xlink" x="0px" y="0px"
	 viewBox="0 0 436.5 175.7" style="enable-background:new 0 0 436.5 175.7;" xml:space="preserve">
<style type="text/css">
	.st0{fill:#6D6E71;}
	.st1{fill:#44AD7C;}
</style>
<g>
	<g>
		<g>
			<g>
				<path class="st0" d="M61.3,173.9v-25.5h3.4v25.5H61.3z M64,165.1v-3h5.7c1.2,0,2.2-0.2,3-0.7c0.8-0.5,1.4-1.1,1.8-1.9
					s0.6-1.7,0.6-2.7c0-1-0.2-1.9-0.6-2.7c-0.4-0.8-1-1.4-1.8-1.9c-0.8-0.5-1.8-0.7-3-0.7H64v-3h5c2.1,0,3.8,0.3,5.2,1
					c1.4,0.7,2.5,1.6,3.2,2.8c0.7,1.2,1.1,2.6,1.1,4.3v0.6c0,1.6-0.4,3-1.1,4.3c-0.7,1.2-1.8,2.2-3.2,2.8c-1.4,0.7-3.1,1-5.2,1H64z"
					/>
				<path class="st0" d="M99.2,173.9v-25.4h3.4v25.4H99.2z M101.9,162.9v-3.1h15.1v3.1H101.9z M116.4,173.9v-25.4h3.4v25.4H116.4z"
					/>
				<path class="st0" d="M140.2,173.9l9.1-25.4h5.8l9.4,25.4H161l-8.5-23.1l1.7,0.8H150l1.8-0.8l-8.2,23.1H140.2z M145.6,166.4
					l1.1-3.1h10.9l1.1,3.1H145.6z"/>
				<path class="st0" d="M184.8,173.9v-25.5h3.4v25.5H184.8z M187,164.8v-3h6.8c1.1,0,2-0.2,2.7-0.7c0.8-0.4,1.4-1,1.8-1.8
					c0.4-0.8,0.6-1.7,0.6-2.7c0-1-0.2-1.9-0.6-2.7c-0.4-0.8-1-1.4-1.8-1.8c-0.8-0.5-1.7-0.7-2.7-0.7H187v-3h6.2
					c1.9,0,3.5,0.3,4.9,0.8c1.4,0.6,2.5,1.4,3.2,2.6s1.1,2.7,1.1,4.5v0.6c0,1.8-0.4,3.3-1.2,4.5c-0.8,1.2-1.9,2-3.2,2.6
					c-1.4,0.6-3,0.8-4.8,0.8H187z M200.5,173.9l-8.4-11.3h4l8.5,11.3H200.5z"/>
				<path class="st0" d="M224.9,173.9v-25.4h4.5l7.5,16.9h0.6l7.5-16.9h4.6v25.4h-3.4v-21.6l0.2,0.1l-7.2,16.3h-4.2l-7.2-16.3
					l0.3-0.1v21.6H224.9z"/>
				<path class="st0" d="M269.8,173.9l9.1-25.4h5.8l9.4,25.4h-3.5l-8.5-23.1l1.7,0.8h-4.1l1.8-0.8l-8.2,23.1H269.8z M275.3,166.4
					l1.1-3.1h10.9l1.1,3.1H275.3z"/>
				<path class="st0" d="M324.7,174.6c-2.3,0-4.3-0.4-5.9-1.2c-1.6-0.8-2.9-1.9-3.9-3.2c-1-1.3-1.7-2.7-2.2-4.2
					c-0.5-1.5-0.7-3-0.7-4.4v-0.8c0-1.5,0.2-3.1,0.7-4.6c0.5-1.5,1.2-2.9,2.2-4.2c1-1.3,2.3-2.3,3.9-3c1.6-0.8,3.5-1.1,5.7-1.1
					c2.3,0,4.2,0.4,5.8,1.2c1.6,0.8,2.9,1.9,3.9,3.3c0.9,1.4,1.5,3.1,1.7,5h-3.5c-0.2-1.4-0.6-2.6-1.4-3.6s-1.7-1.6-2.8-2.1
					c-1.1-0.5-2.4-0.7-3.8-0.7c-1.5,0-2.8,0.3-4,0.8c-1.1,0.5-2.1,1.3-2.8,2.2c-0.8,0.9-1.3,2-1.7,3.2s-0.6,2.6-0.6,4
					c0,1.4,0.2,2.7,0.6,3.9s1,2.3,1.7,3.3c0.8,1,1.7,1.7,2.9,2.2c1.2,0.5,2.5,0.8,4.1,0.8c2.2,0,4-0.5,5.5-1.6s2.4-2.7,2.7-4.7h3.5
					c-0.2,1.7-0.8,3.3-1.8,4.8c-0.9,1.4-2.2,2.6-3.9,3.4S327.1,174.6,324.7,174.6z"/>
				<path class="st0" d="M361.8,164.1l-8.1-15.5h3.5l6.8,13.3l-1.3-0.4h4.1l-1.4,0.4l6.4-13.3h3.3l-7.6,15.5H361.8z M363.1,173.9
					v-10.6h3.3v10.6H363.1z"/>
			</g>
		</g>
	</g>
	<g>
		<path class="st1" d="M170.3,57.4V32.6c0-5.4-0.3-10.9-1.9-15.5c1.2-1.1,3.7-2.8,7.3-2.8c4.1,0,7.3,2.5,7.3,6.8V95
			c0,5.4,0.3,10.9,1.9,15.3c-1.1,1.1-3.7,2.9-7.3,2.9c-4.1,0-7.2-2.6-7.2-6.9V64.8L170.3,57.4z"/>
		<path class="st1" d="M127.2,64.8V95c0,5.4,0.3,10.9,1.9,15.3c-1.2,1.1-3.7,2.9-7.3,2.9c-4.3,0-7.3-2.6-7.3-6.9V32.6
			c0-5.4-0.4-10.9-1.9-15.5c1.1-1.1,3.7-2.8,7.2-2.8c4.3,0,7.5,2.5,7.5,6.8v36.3V64.8z"/>
		<path class="st1" d="M248.5,74.3L233,22.1l-15.2,52.2l-2.2,7.3l-6.3,21.9c-0.4,1.7-0.8,3.3-0.8,4.8c0,1.5,0.3,2.6,1,3.4
			c-1.9,0.7-3.9,1.2-6.9,1.2c-4.8,0-7.2-1.7-7.2-5.5c0-1.8,0.7-4.4,1.5-6.9l28.7-84.7c3.6-1.4,7-1.9,10.5-1.9c3.3,0,6.3,1,7.3,4.4
			l27,84.9c0.7,2.2,1.9,5.1,3.6,6.9c-1.4,1.5-3.5,2.9-7.5,2.9c-3.9,0-7-1.7-7.9-5l-7.9-26.5L248.5,74.3z"/>
		<path class="st1" d="M336.6,74.3l-15.6-52.2l-15.2,52.2l-2.2,7.3l-6.3,21.9c-0.4,1.7-0.8,3.3-0.8,4.8c0,1.5,0.3,2.6,1,3.4
			c-1.9,0.7-3.9,1.2-6.9,1.2c-4.8,0-7.2-1.7-7.2-5.5c0-1.8,0.7-4.4,1.5-6.9l28.7-84.7c3.6-1.4,7-1.9,10.5-1.9c3.3,0,6.3,1,7.3,4.4
			l27,84.9c0.7,2.2,1.9,5.1,3.6,6.9c-1.4,1.5-3.5,2.9-7.5,2.9c-3.9,0-7-1.7-7.9-5l-7.9-26.5L336.6,74.3z M250.8,81.6h-35.2l2.2-7.3
			h30.8L250.8,81.6z M338.9,81.6h-35.2l2.2-7.3h30.8L338.9,81.6z"/>
		<g>
			<path class="st1" d="M61.5,103.7c-26.3,0-47.7-19.9-47.7-44.4c0-24.5,21.3-44.4,47.7-44.4c0.3,0,0.5,0,0.8,0c0,0,0.1,0,0.1,0
				c8.1,0.2,11.6-5.7,12.8-9.7c-6.2-2.6-13-4.1-20.1-4.1c-29.7,0-53.7,25.1-53.7,56c0,30.9,24.1,56,53.7,56
				c23.6,0,43.6-15.8,50.8-37.8C99,91.9,81.7,103.7,61.5,103.7z"/>
		</g>
		<path class="st1" d="M431,102.9l-9.6-23.4c-2.6-6.4-6.5-11.5-13.4-13.4c13-3.3,21.4-12.7,21.4-26.4c0-18.5-13-25.8-39.1-25.8
			c-11.6,0-17.8,1.5-21.3,3.2c1.5,4.6,1.9,12.4,1.9,15.5v73.7c0,4.3,3,6.9,7.3,6.9c3.6,0,6.2-1.8,7.3-2.9
			c-1.7-4.1-1.9-11.6-1.9-14.8V69.3h9.1c11.6,0.1,14.1,6.6,16.8,13.5l10,25.9c1.1,3.2,4.4,4.6,8.2,4.3c4-0.3,5.9-1.9,7.2-3.5
			C433.3,107.9,431.9,105.1,431,102.9z M393.4,62c-3.7,0-6.9,0-9.7-0.1V21.6c1.7-0.2,4.1-0.2,7.5-0.2c17.4,0,24.4,6.7,24.4,19.6
			C415.6,53.4,406.6,61.7,393.4,62z"/>
		<polygon class="st1" points="127.2,61.9 170.3,61.9 170.4,69.2 127.2,69.2 		"/>
		<path class="st1" d="M102,55.2c0-1.1-1.2-2.1-3.3-3c-0.7-0.3-1.5-0.6-2.5-0.9c-4.8-1.5-12.2-2.7-21.1-3.3L84,32.4
			c2-3.5,5.4-5.7,9.1-7c0.3-0.1,0.6-0.2,0.9-0.5c1.8-1.2,1.9-4,0.2-5.9c-1.6-1.8-3.2-3.4-5-5c-1.8-1.5-3.6-3-5.6-4.2
			c-0.8-0.5-1.7-0.8-2.6-0.8c-1.4,0-2.6,0.7-3.3,1.9c-0.3,0.6-0.5,1.4-0.5,2.1c-0.1,3.8-2,7.4-4.6,10.1L48.5,47.7
			c-17.4,0.9-30.1,3.9-30.1,7.5c0,0.1,0,0.2,0,0.2c0.1,24,18.6,43.5,41.3,43.5c16.5,0,30.8-10.2,37.4-25
			c-6.7,12.6-19.8,21.2-34.7,21.2C42,95.1,25.2,79.2,23,58.7C30,61.3,44,63,60.2,63C83.3,63,102,59.5,102,55.2z M74.6,25.5
			c3.4-3.5,5.4-7.8,5.5-12.1c0-0.3,0.1-0.6,0.2-0.8c0.1-0.1,0.3-0.2,0.5-0.2c0.2,0,0.5,0,0.9,0.3c1.8,1.2,3.6,2.5,5.3,4
			c1.7,1.4,3.2,3,4.7,4.6c0.3,0.3,0.5,0.7,0.4,1.1c0,0.1,0,0.2-0.1,0.3c0,0-0.1,0-0.1,0c-4.9,1.6-8.3,3.6-10.4,7.4l-16.8,28
			c-0.8,0-1.6,0-2.4,0c-6.3,0-12.1-0.3-16.9-0.6L74.6,25.5z"/>
	</g>
</g>
</svg>
