<svg xmlns="http://www.w3.org/2000/svg" viewBox="0 0 114 114" role="img" aria-label="Chaar Pharmacy icon">
  <path fill="#44AD7C" d="M61.5 103.7c-26.3 0-47.7-19.9-47.7-44.4 0-24.5 21.3-44.4 47.7-44.4h.8c8.1.2 11.6-5.7 12.8-9.7-6.2-2.6-13-4.1-20.1-4.1-29.7 0-53.7 25.1-53.7 56s24.1 56 53.7 56c23.6 0 43.6-15.8 50.8-37.8-6.8 16.6-24.1 28.4-44.3 28.4Z"/>
  <path fill="#44AD7C" d="M102 55.2c0-1.1-1.2-2.1-3.3-3-.7-.3-1.5-.6-2.5-.9-4.8-1.5-12.2-2.7-21.1-3.3L84 32.4c2-3.5 5.4-5.7 9.1-7 .3-.1.6-.2.9-.5 1.8-1.2 1.9-4 .2-5.9-1.6-1.8-3.2-3.4-5-5-1.8-1.5-3.6-3-5.6-4.2-.8-.5-1.7-.8-2.6-.8-1.4 0-2.6.7-3.3 1.9-.3.6-.5 1.4-.5 2.1-.1 3.8-2 7.4-4.6 10.1L48.5 47.7c-17.4.9-30.1 3.9-30.1 7.5v.2c.1 24 18.6 43.5 41.3 43.5 16.5 0 30.8-10.2 37.4-25-6.7 12.6-19.8 21.2-34.7 21.2C42 95.1 25.2 79.2 23 58.7 30 61.3 44 63 60.2 63 83.3 63 102 59.5 102 55.2ZM74.6 25.5c3.4-3.5 5.4-7.8 5.5-12.1 0-.3.1-.6.2-.8.1-.1.3-.2.5-.2.2 0 .5 0 .9.3 1.8 1.2 3.6 2.5 5.3 4 1.7 1.4 3.2 3 4.7 4.6.3.3.5.7.4 1.1 0 .1 0 .2-.1.3h-.1c-4.9 1.6-8.3 3.6-10.4 7.4l-16.8 28h-2.4c-6.3 0-12.1-.3-16.9-.6l29.2-32Z"/>
</svg>
